<svg xmlns="http://www.w3.org/2000/svg" xmlns:xlink="http://www.w3.org/1999/xlink" width="2000" zoomAndPan="magnify" viewBox="0 0 1500 1499.999933" height="2000" preserveAspectRatio="xMidYMid meet" version="1.0"><defs><clipPath id="42b2054305"><path d="M 228 156 L 1263 156 L 1263 1276 L 228 1276 Z M 228 156 " clip-rule="nonzero"/></clipPath><clipPath id="c7588b44f7"><path d="M 272.535156 1378.605469 L 0.0117188 477.671875 L 1178.046875 121.328125 L 1450.570312 1022.261719 Z M 272.535156 1378.605469 " clip-rule="nonzero"/></clipPath><clipPath id="84a8197739"><path d="M 272.535156 1378.605469 L 0.0117188 477.671875 L 1178.046875 121.328125 L 1450.570312 1022.261719 Z M 272.535156 1378.605469 " clip-rule="nonzero"/></clipPath><clipPath id="6b76ebee04"><path d="M 272.535156 1378.605469 L 0.0117188 477.671875 L 1178.046875 121.328125 L 1450.570312 1022.261719 Z M 272.535156 1378.605469 " clip-rule="nonzero"/></clipPath></defs><g clip-path="url(#42b2054305)"><g clip-path="url(#c7588b44f7)"><g clip-path="url(#84a8197739)"><g clip-path="url(#6b76ebee04)"><path fill="#f8ac23" d="M 1006.226562 194.542969 C 988.445312 211.042969 985.859375 230.070312 991.210938 251.210938 C 995.054688 266.207031 1001.332031 280.644531 1007.085938 295.0625 C 1011.410156 305.917969 1017.234375 315.96875 1021.71875 326.777344 C 1027.179688 340.242188 1016.210938 337.304688 1009.28125 338.53125 C 967.78125 326.585938 925.472656 326.351562 882.867188 327.421875 C 880.445312 327.460938 877.980469 329.074219 875.640625 329.957031 C 870.570312 328.710938 865.382812 325.933594 860.476562 326.378906 C 807.300781 330.996094 754.167969 335.773438 701.230469 341.1875 C 692.308594 342.148438 683.378906 345.371094 674.621094 348.019531 C 638.425781 358.792969 619.0625 401.660156 629.957031 435.375 C 645.105469 482.574219 662.910156 528.792969 679.804688 575.460938 C 681.90625 581.253906 687.300781 585.878906 691.105469 590.984375 C 692.144531 593.273438 693.074219 595.773438 694.117188 598.066406 C 697.960938 607.328125 701.917969 616.382812 705.601562 625.691406 C 708.101562 632.234375 704.714844 634.824219 695.4375 633.457031 C 693.078125 633.128906 690.671875 632.640625 688.265625 632.152344 C 671.804688 626.011719 655.082031 629.332031 638.402344 631.078125 C 621.953125 628.40625 605.6875 622.902344 588.9375 629.011719 C 587.855469 628.296875 586.785156 627.058594 585.78125 627.1875 C 519.667969 627.550781 453.300781 625.90625 387.640625 636.386719 C 353.332031 641.898438 321.675781 652.167969 304.304688 686.09375 C 303.082031 688.375 300.773438 689.941406 299.34375 692.109375 C 295.246094 697.519531 293.171875 703.882812 293.933594 710.429688 C 297.730469 740.207031 303.164062 769.667969 325.632812 792.234375 C 327.445312 797.074219 328.398438 802.519531 331.117188 806.910156 C 371.589844 872.335938 404.042969 942.273438 447.140625 1006.035156 C 466.039062 1034.027344 484.390625 1062.53125 503.019531 1090.78125 C 505.242188 1094.105469 507.046875 1097.207031 504.179688 1103.808594 C 484.058594 1106.246094 462.554688 1109.277344 440.761719 1111.351562 C 402.082031 1115.058594 363.0625 1117.652344 324.320312 1121.726562 C 310.171875 1123.226562 296.402344 1128.261719 282.480469 1131.082031 C 264.800781 1134.691406 253.210938 1146.363281 241.382812 1158.976562 C 230.050781 1170.917969 232.023438 1184.917969 229.792969 1198.796875 C 225.574219 1223.355469 234.820312 1238.976562 258.179688 1246.679688 C 286.117188 1262.035156 317.542969 1263.648438 348.429688 1267.511719 C 427.46875 1277.136719 506.699219 1278.195312 586.160156 1270.835938 C 612.175781 1268.355469 637.757812 1264.4375 663.273438 1259.152344 C 672.910156 1257.105469 680.902344 1253.648438 686.878906 1246.972656 C 708.746094 1221.59375 717.160156 1191.941406 705.570312 1160.523438 C 698.082031 1140.375 689.671875 1119.460938 674.878906 1102.738281 C 663.328125 1081.210938 652.363281 1059.332031 640.066406 1038.207031 C 609.035156 985.039062 572.277344 935.34375 545.957031 879.363281 C 544.964844 877.230469 542.316406 875.945312 540.367188 874.101562 C 538.113281 862.621094 535.746094 851.351562 523.75 845.59375 C 523.910156 845.546875 524.117188 845.660156 524.277344 845.609375 C 524.097656 844.449219 523.871094 843.125 523.535156 842.011719 C 514.917969 813.515625 514.917969 813.515625 542.882812 814.613281 C 546.5625 814.714844 550.226562 813.609375 553.875 813.027344 C 561.613281 818.503906 569.785156 816.207031 577.9375 814.433594 C 580.171875 815.496094 582.484375 817.402344 584.957031 817.523438 C 636.316406 819.539062 687.164062 826.746094 738.402344 831.230469 C 761.082031 833.230469 783.613281 840.488281 806.738281 835.925781 C 846.488281 848.402344 887.136719 855.21875 929.019531 857.492188 C 949.511719 858.59375 962.65625 851.488281 975.816406 836.386719 C 984.035156 826.777344 980.058594 816.511719 984.261719 807.421875 C 993.128906 787.886719 987.402344 770.679688 978.769531 751.917969 C 960.085938 710.828125 937.882812 671.324219 921.488281 629.195312 C 914.722656 611.433594 902.59375 595.46875 896.914062 576.683594 C 876.210938 560.53125 877.535156 532.15625 861.859375 513.09375 C 857.691406 507.925781 862.3125 500.792969 870.308594 499.070312 C 875.230469 498.105469 880.632812 498.726562 885.84375 498.714844 C 889.273438 500.285156 892.769531 503.222656 896.191406 503.054688 C 962.902344 500.078125 1029.519531 496.78125 1096.339844 493.597656 C 1120.644531 503.273438 1146.457031 502.417969 1171.832031 505.863281 C 1193.746094 508.789062 1212.441406 502.785156 1227.574219 486.742188 C 1242.035156 468.464844 1242.34375 442.484375 1260.746094 426.316406 C 1262.253906 424.992188 1263.140625 421.597656 1262.625 419.320312 C 1258.707031 397.742188 1255.054688 375.910156 1237.558594 360.007812 C 1218.675781 338.960938 1205.824219 313.136719 1184.734375 293.972656 C 1171.070312 268.914062 1154.558594 245.933594 1132.609375 227.378906 C 1130.480469 222.636719 1128.191406 217.945312 1126.011719 213.042969 C 1125.359375 206.289062 1121.527344 202.234375 1115.433594 199.910156 C 1111.199219 193.371094 1107.277344 186.738281 1102.773438 180.457031 C 1081.339844 150.972656 1079.464844 153.96875 1048.316406 163.042969 C 1028.15625 168.796875 1019.25 182.4375 1006.226562 194.542969 Z M 512.535156 782.089844 C 512.679688 782.570312 512.984375 783 513.175781 783.636719 C 512.859375 783.730469 512.539062 783.828125 512.269531 784.082031 C 512.394531 783.351562 512.570312 782.777344 512.535156 782.089844 Z M 710.078125 610.613281 C 710.125 610.769531 710.285156 610.722656 710.335938 610.882812 C 710.285156 610.722656 710.445312 610.675781 710.398438 610.515625 C 710.78125 611.789062 711.214844 613.222656 711.441406 614.542969 C 710.847656 613.160156 710.464844 611.886719 710.078125 610.613281 Z M 652.675781 651.257812 C 652.675781 651.257812 652.835938 651.210938 652.835938 651.210938 C 652.726562 651.417969 652.613281 651.625 652.34375 651.878906 C 652.183594 651.929688 651.976562 651.816406 651.816406 651.867188 C 652.089844 651.609375 652.359375 651.355469 652.421875 650.988281 C 652.675781 651.257812 652.675781 651.257812 652.675781 651.257812 Z M 652.675781 651.257812 " fill-opacity="1" fill-rule="nonzero"/></g></g></g></g></svg>