<svg xmlns="http://www.w3.org/2000/svg" xmlns:xlink="http://www.w3.org/1999/xlink" width="2000" zoomAndPan="magnify" viewBox="0 0 1500 1499.999933" height="2000" preserveAspectRatio="xMidYMid meet" version="1.0"><defs><g/><clipPath id="7ba6532529"><rect x="0" width="1157" y="0" height="389"/></clipPath><clipPath id="d285673f00"><path d="M 924 806 L 1142 806 L 1142 1024 L 924 1024 Z M 924 806 " clip-rule="nonzero"/></clipPath><clipPath id="0e4bd7ba8b"><path d="M 920.507812 810.125 L 1137.84375 802.679688 L 1145.289062 1020.011719 L 927.953125 1027.460938 Z M 920.507812 810.125 " clip-rule="nonzero"/></clipPath><clipPath id="444c82dc84"><path d="M 1029.175781 806.402344 C 969.160156 808.457031 922.175781 858.777344 924.230469 918.792969 C 926.285156 978.808594 976.605469 1025.792969 1036.621094 1023.738281 C 1096.636719 1021.679688 1143.621094 971.359375 1141.566406 911.34375 C 1139.507812 851.332031 1089.191406 804.34375 1029.175781 806.402344 Z M 1029.175781 806.402344 " clip-rule="nonzero"/></clipPath><clipPath id="9a8e8c6588"><path d="M 0 0 L 218 0 L 218 218 L 0 218 Z M 0 0 " clip-rule="nonzero"/></clipPath><clipPath id="ab2fb0df29"><path d="M -3.492188 4.125 L 213.84375 -3.320312 L 221.289062 214.011719 L 3.953125 221.460938 Z M -3.492188 4.125 " clip-rule="nonzero"/></clipPath><clipPath id="fd221c8108"><path d="M 105.175781 0.402344 C 45.160156 2.457031 -1.824219 52.777344 0.230469 112.792969 C 2.285156 172.808594 52.605469 219.792969 112.621094 217.738281 C 172.636719 215.679688 219.621094 165.359375 217.566406 105.34375 C 215.507812 45.332031 165.191406 -1.65625 105.175781 0.402344 Z M 105.175781 0.402344 " clip-rule="nonzero"/></clipPath><clipPath id="f88a4b310c"><rect x="0" width="218" y="0" height="218"/></clipPath></defs><g transform="matrix(1, 0, 0, 1, 179, 553)"><g clip-path="url(#7ba6532529)"><g fill="#ffffff" fill-opacity="1"><g transform="translate(61.346054, 301.779928)"><g><path d="M 165.953125 -52.25 L 99.953125 -27.9375 L 79.90625 -89.703125 L 49.078125 -80 L 65.6875 -20.6875 L 5.640625 -1.78125 L -48.609375 -191.84375 L 16.109375 -209 L 42.40625 -111.46875 L 72.15625 -120.84375 L 39.84375 -224.421875 L 101.484375 -242.0625 Z M 165.953125 -52.25 "/></g></g></g><g fill="#ffffff" fill-opacity="1"><g transform="translate(226.515094, 249.216067)"><g><path d="M 160.015625 -130.203125 C 161.554688 -121.816406 162.070312 -113.550781 161.5625 -105.40625 C 161.050781 -97.269531 159.601562 -89.457031 157.21875 -81.96875 C 154.832031 -74.476562 151.550781 -67.421875 147.375 -60.796875 C 143.207031 -54.171875 138.25 -48.238281 132.5 -43 C 126.75 -37.757812 120.253906 -33.304688 113.015625 -29.640625 C 105.773438 -25.984375 97.867188 -23.367188 89.296875 -21.796875 C 81.003906 -20.273438 72.910156 -19.890625 65.015625 -20.640625 C 57.117188 -21.390625 49.546875 -23.070312 42.296875 -25.6875 C 35.054688 -28.300781 28.289062 -31.816406 22 -36.234375 C 15.71875 -40.660156 10.109375 -45.828125 5.171875 -51.734375 C 0.234375 -57.648438 -3.960938 -64.195312 -7.421875 -71.375 C -10.890625 -78.550781 -13.378906 -86.238281 -14.890625 -94.4375 C -16.359375 -102.457031 -16.828125 -110.488281 -16.296875 -118.53125 C -15.765625 -126.582031 -14.300781 -134.351562 -11.90625 -141.84375 C -9.519531 -149.332031 -6.269531 -156.40625 -2.15625 -163.0625 C 1.945312 -169.71875 6.820312 -175.707031 12.46875 -181.03125 C 18.125 -186.351562 24.472656 -190.847656 31.515625 -194.515625 C 38.554688 -198.191406 46.226562 -200.789062 54.53125 -202.3125 C 67.882812 -204.757812 80.445312 -204.914062 92.21875 -202.78125 C 103.988281 -200.65625 114.472656 -196.457031 123.671875 -190.1875 C 132.867188 -183.914062 140.609375 -175.710938 146.890625 -165.578125 C 153.179688 -155.441406 157.554688 -143.648438 160.015625 -130.203125 Z M 99.296875 -115.359375 C 98.578125 -119.316406 97.296875 -123.054688 95.453125 -126.578125 C 93.617188 -130.097656 91.328125 -133.109375 88.578125 -135.609375 C 85.835938 -138.109375 82.664062 -139.953125 79.0625 -141.140625 C 75.46875 -142.335938 71.550781 -142.550781 67.3125 -141.78125 C 62.988281 -140.988281 59.265625 -139.492188 56.140625 -137.296875 C 53.015625 -135.109375 50.476562 -132.429688 48.53125 -129.265625 C 46.582031 -126.109375 45.300781 -122.585938 44.6875 -118.703125 C 44.070312 -114.828125 44.132812 -110.859375 44.875 -106.796875 C 45.582031 -102.929688 46.84375 -99.164062 48.65625 -95.5 C 50.46875 -91.832031 52.765625 -88.632812 55.546875 -85.90625 C 58.335938 -83.175781 61.546875 -81.144531 65.171875 -79.8125 C 68.796875 -78.476562 72.78125 -78.207031 77.125 -79 C 81.445312 -79.789062 85.179688 -81.351562 88.328125 -83.6875 C 91.472656 -86.03125 93.976562 -88.875 95.84375 -92.21875 C 97.707031 -95.5625 98.9375 -99.238281 99.53125 -103.25 C 100.125 -107.269531 100.046875 -111.304688 99.296875 -115.359375 Z M 99.296875 -115.359375 "/></g></g></g><g fill="#ffffff" fill-opacity="1"><g transform="translate(400.181834, 216.945164)"><g><path d="M 175 -109.25 C 175.488281 -100.738281 174.96875 -92.476562 173.4375 -84.46875 C 171.914062 -76.457031 169.503906 -68.882812 166.203125 -61.75 C 162.898438 -54.613281 158.765625 -48.019531 153.796875 -41.96875 C 148.835938 -35.914062 143.175781 -30.644531 136.8125 -26.15625 C 130.457031 -21.675781 123.460938 -18.066406 115.828125 -15.328125 C 108.191406 -12.597656 100.023438 -10.988281 91.328125 -10.5 C 82.910156 -10.019531 74.828125 -10.644531 67.078125 -12.375 C 59.328125 -14.101562 52.019531 -16.71875 45.15625 -20.21875 C 38.300781 -23.726562 32.03125 -28.0625 26.34375 -33.21875 C 20.65625 -38.382812 15.726562 -44.207031 11.5625 -50.6875 C 7.40625 -57.164062 4.054688 -64.179688 1.515625 -71.734375 C -1.015625 -79.296875 -2.515625 -87.234375 -2.984375 -95.546875 C -3.441406 -103.691406 -2.910156 -111.722656 -1.390625 -119.640625 C 0.128906 -127.566406 2.539062 -135.09375 5.84375 -142.21875 C 9.144531 -149.351562 13.25 -155.96875 18.15625 -162.0625 C 23.070312 -168.164062 28.660156 -173.503906 34.921875 -178.078125 C 41.191406 -182.648438 48.046875 -186.316406 55.484375 -189.078125 C 62.929688 -191.847656 70.867188 -193.472656 79.296875 -193.953125 C 92.859375 -194.710938 105.34375 -193.300781 116.75 -189.71875 C 128.164062 -186.132812 138.046875 -180.660156 146.390625 -173.296875 C 154.742188 -165.929688 161.410156 -156.828125 166.390625 -145.984375 C 171.367188 -135.148438 174.238281 -122.90625 175 -109.25 Z M 112.90625 -102.078125 C 112.675781 -106.109375 111.867188 -109.984375 110.484375 -113.703125 C 109.109375 -117.429688 107.210938 -120.703125 104.796875 -123.515625 C 102.390625 -126.335938 99.472656 -128.566406 96.046875 -130.203125 C 92.617188 -131.835938 88.753906 -132.535156 84.453125 -132.296875 C 80.054688 -132.046875 76.171875 -131.023438 72.796875 -129.234375 C 69.421875 -127.453125 66.570312 -125.113281 64.25 -122.21875 C 61.925781 -119.320312 60.21875 -115.988281 59.125 -112.21875 C 58.03125 -108.445312 57.601562 -104.5 57.84375 -100.375 C 58.0625 -96.457031 58.835938 -92.566406 60.171875 -88.703125 C 61.503906 -84.835938 63.382812 -81.375 65.8125 -78.3125 C 68.25 -75.257812 71.179688 -72.847656 74.609375 -71.078125 C 78.046875 -69.304688 81.960938 -68.546875 86.359375 -68.796875 C 90.742188 -69.035156 94.640625 -70.113281 98.046875 -72.03125 C 101.460938 -73.957031 104.300781 -76.460938 106.5625 -79.546875 C 108.832031 -82.640625 110.515625 -86.140625 111.609375 -90.046875 C 112.703125 -93.960938 113.132812 -97.972656 112.90625 -102.078125 Z M 112.90625 -102.078125 "/></g></g></g><g fill="#ffffff" fill-opacity="1"><g transform="translate(576.676935, 206.856491)"><g><path d="M 180.359375 -123.9375 C 179.878906 -116.644531 178.816406 -110.070312 177.171875 -104.21875 C 175.535156 -98.363281 173.195312 -93.046875 170.15625 -88.265625 C 167.113281 -83.484375 163.300781 -79.128906 158.71875 -75.203125 C 154.144531 -71.285156 148.695312 -67.613281 142.375 -64.1875 L 171.84375 -2.53125 L 107.9375 5.671875 L 90.265625 -55.5 L 72.8125 -56.078125 L 66.46875 2.09375 L 6.171875 -1.859375 C 8.046875 -23.140625 9.882812 -44.328125 11.6875 -65.421875 C 13.5 -86.523438 15.382812 -107.71875 17.34375 -129 C 18.226562 -139.738281 19.109375 -150.382812 19.984375 -160.9375 C 20.867188 -171.488281 21.945312 -182.125 23.21875 -192.84375 C 29.90625 -194.84375 36.476562 -196.425781 42.9375 -197.59375 C 49.40625 -198.769531 55.875 -199.59375 62.34375 -200.0625 C 68.8125 -200.53125 75.347656 -200.710938 81.953125 -200.609375 C 88.566406 -200.503906 95.335938 -200.222656 102.265625 -199.765625 C 112.921875 -199.066406 123.128906 -196.914062 132.890625 -193.3125 C 142.648438 -189.71875 151.171875 -184.722656 158.453125 -178.328125 C 165.734375 -171.941406 171.394531 -164.203125 175.4375 -155.109375 C 179.488281 -146.015625 181.128906 -135.625 180.359375 -123.9375 Z M 117.25 -123.578125 C 117.507812 -127.503906 117.207031 -131.132812 116.34375 -134.46875 C 115.476562 -137.8125 114.070312 -140.742188 112.125 -143.265625 C 110.175781 -145.796875 107.679688 -147.835938 104.640625 -149.390625 C 101.609375 -150.953125 97.984375 -151.875 93.765625 -152.15625 C 91.898438 -152.28125 90.070312 -152.28125 88.28125 -152.15625 C 86.5 -152.039062 84.75 -151.804688 83.03125 -151.453125 L 77.359375 -99.4375 L 80.734375 -99.21875 C 84.753906 -98.957031 88.875 -99.203125 93.09375 -99.953125 C 97.320312 -100.703125 101.164062 -102.039062 104.625 -103.96875 C 108.09375 -105.90625 110.988281 -108.488281 113.3125 -111.71875 C 115.632812 -114.945312 116.945312 -118.898438 117.25 -123.578125 Z M 117.25 -123.578125 "/></g></g></g><g fill="#ffffff" fill-opacity="1"><g transform="translate(744.088256, 217.256609)"><g><path d="M 183.4375 22.234375 L 113.28125 18.171875 L 110.859375 -14.578125 L 79.375 -20.515625 L 66.59375 9.390625 L -2.546875 -10.78125 L 87.0625 -184.390625 L 164.59375 -173.78125 Z M 113.84375 -57.78125 L 112.421875 -107.828125 L 93.125 -61.6875 Z M 113.84375 -57.78125 "/></g></g></g><g fill="#ffffff" fill-opacity="1"><g transform="translate(914.606061, 249.128149)"><g><path d="M 236.46875 -124.6875 L 130.1875 -45.140625 L 100.125 37.625 L 36.609375 17.5 L 64.640625 -65.3125 L 57.828125 -176.859375 L 128.875 -163.796875 L 121.25 -102.515625 L 173.609375 -149.609375 Z M 236.46875 -124.6875 "/></g></g></g></g></g><g clip-path="url(#d285673f00)"><g clip-path="url(#0e4bd7ba8b)"><g clip-path="url(#444c82dc84)"><g transform="matrix(1, 0, 0, 1, 924, 806)"><g clip-path="url(#f88a4b310c)"><g clip-path="url(#9a8e8c6588)"><g clip-path="url(#ab2fb0df29)"><g clip-path="url(#fd221c8108)"><path fill="#ffffff" d="M -3.492188 4.125 L 213.84375 -3.320312 L 221.289062 214.011719 L 3.953125 221.460938 Z M -3.492188 4.125 " fill-opacity="1" fill-rule="nonzero"/></g></g></g></g></g></g></g></g><g fill="#fefefe" fill-opacity="1"><g transform="translate(964.321022, 962.820457)"><g><path d="M 64.875 -95.109375 C 65.425781 -94.429688 65.671875 -93.734375 65.609375 -93.015625 C 64.878906 -72.722656 64.554688 -57.359375 64.640625 -46.921875 C 64.691406 -37.816406 65.023438 -24.265625 65.640625 -6.265625 C 65.703125 -4.484375 64.84375 -3.5625 63.0625 -3.5 L 43.265625 -2.828125 C 42.554688 -2.804688 41.925781 -3.03125 41.375 -3.5 C 40.820312 -3.96875 40.53125 -4.601562 40.5 -5.40625 L 40.453125 -7.015625 C 40.796875 -7.203125 40.96875 -7.335938 40.96875 -7.421875 L 40.953125 -7.828125 L 40.546875 -7.8125 L 40.5625 -11.578125 L 41.078125 -11.859375 C 41.078125 -11.941406 41.007812 -12.023438 40.875 -12.109375 C 40.738281 -12.203125 40.625 -12.289062 40.53125 -12.375 L 41.03125 -40.5 L 38.5 -40.140625 L 36.125 -39.65625 C 35.59375 -39.632812 34.96875 -39.523438 34.25 -39.328125 C 33.8125 -39.316406 33.148438 -39.207031 32.265625 -39 C 29.878906 -38.289062 26.832031 -37.203125 23.125 -35.734375 L 23.6875 -3.890625 C 23.75 -2.109375 22.890625 -1.1875 21.109375 -1.125 L 1.46875 -0.046875 C 0.582031 -0.015625 -0.113281 -0.257812 -0.625 -0.78125 C -1.144531 -1.300781 -1.414062 -2.003906 -1.4375 -2.890625 L 1.453125 -90.40625 C 1.578125 -92.101562 2.441406 -92.976562 4.046875 -93.03125 L 21.140625 -94.015625 C 22.035156 -94.046875 22.757812 -93.78125 23.3125 -93.21875 C 23.863281 -92.664062 24.109375 -92.035156 24.046875 -91.328125 L 23 -59.296875 L 28.21875 -59.59375 L 28.484375 -59.203125 C 28.492188 -59.023438 28.722656 -58.941406 29.171875 -58.953125 C 29.441406 -58.960938 29.613281 -59.148438 29.6875 -59.515625 L 29.015625 -59.625 L 41.421875 -60.578125 L 42.203125 -92.609375 C 42.234375 -94.296875 43.097656 -95.164062 44.796875 -95.21875 L 62.84375 -95.84375 C 63.550781 -95.863281 64.226562 -95.617188 64.875 -95.109375 Z M 21.0625 -88.40625 C 20.875 -88.570312 20.515625 -88.78125 19.984375 -89.03125 L 17.421875 -89.21875 L 17.15625 -89.203125 L 15.953125 -89.03125 L 15.140625 -89 C 14.890625 -88.90625 14.453125 -88.847656 13.828125 -88.828125 L 13.015625 -88.796875 C 12.753906 -88.785156 12.617188 -88.820312 12.609375 -88.90625 L 12.59375 -89.3125 L 11.515625 -89.28125 C 11.085938 -88.8125 10.785156 -88.578125 10.609375 -88.578125 C 10.523438 -88.671875 10.175781 -88.617188 9.5625 -88.421875 C 10.445312 -88.085938 11.203125 -87.9375 11.828125 -87.96875 L 12.765625 -88.265625 L 13.6875 -88.421875 C 13.78125 -88.421875 13.914062 -88.398438 14.09375 -88.359375 C 14.28125 -88.328125 14.640625 -88.320312 15.171875 -88.34375 L 19.734375 -88.359375 L 20.140625 -88.109375 C 20.234375 -88.015625 20.410156 -87.972656 20.671875 -87.984375 Z M 8.015625 -86.75 C 8.003906 -86.84375 7.953125 -86.929688 7.859375 -87.015625 C 7.773438 -87.097656 7.6875 -87.140625 7.59375 -87.140625 C 7.40625 -87.316406 7.3125 -87.445312 7.3125 -87.53125 L 7.4375 -87.8125 L 7.421875 -88.203125 L 6.625 -88.046875 L 6.234375 -87.890625 L 6.28125 -86.546875 C 6.46875 -86.296875 6.738281 -86.175781 7.09375 -86.1875 Z M 8.78125 -83.703125 L 8.765625 -84.375 L 8.359375 -84.359375 L 8.375 -83.6875 Z M 45.15625 -84.53125 C 45.164062 -84.351562 45.351562 -84.09375 45.71875 -83.75 L 46.375 -84.3125 C 46.1875 -84.476562 46.09375 -84.5625 46.09375 -84.5625 Z M 53.359375 -83.609375 L 53.34375 -84.15625 L 52.9375 -84.140625 L 52.953125 -83.59375 Z M 50.875 -81.796875 L 50.859375 -82.0625 L 50.46875 -82.046875 L 50.484375 -81.78125 Z M 50.15625 -79.21875 L 50.140625 -79.765625 L 49.875 -79.75 L 49.890625 -79.203125 Z M 11.421875 -76.5625 L 11.28125 -76.546875 L 11.03125 -76.28125 L 11.296875 -76.140625 Z M 19 -74.140625 C 18.988281 -74.398438 18.851562 -74.570312 18.59375 -74.65625 C 18.40625 -74.832031 18.398438 -75.007812 18.578125 -75.1875 C 18.566406 -75.457031 18.515625 -75.632812 18.421875 -75.71875 L 17.890625 -75.703125 L 17.21875 -75.28125 L 17.25 -74.46875 L 18.609375 -73.984375 L 18.875 -74 Z M 45.96875 -76.65625 L 45.96875 -76.390625 L 46.90625 -76.421875 L 46.90625 -76.6875 Z M 46.703125 -74.6875 L 47.765625 -74.71875 L 47.75 -74.984375 L 46.6875 -74.953125 Z M 53.484375 -67.953125 C 53.492188 -67.773438 53.679688 -67.601562 54.046875 -67.4375 C 54.597656 -67.101562 54.875 -66.9375 54.875 -66.9375 L 54.171875 -67.578125 Z M 32.140625 -58.125 C 31.773438 -58.476562 31.414062 -58.644531 31.0625 -58.625 C 30.96875 -58.53125 30.878906 -58.484375 30.796875 -58.484375 L 30.8125 -58.21875 C 30.8125 -58.125 30.945312 -57.992188 31.21875 -57.828125 C 31.769531 -57.578125 31.992188 -57.492188 31.890625 -57.578125 L 32.03125 -57.84375 Z M 35.5 -57.703125 L 35.765625 -57.71875 L 35.5 -57.96875 L 35.234375 -57.828125 Z M 28.75 -55.859375 C 29.28125 -55.703125 29.675781 -55.898438 29.9375 -56.453125 L 29.125 -56.421875 C 28.863281 -56.316406 28.738281 -56.128906 28.75 -55.859375 Z M 32.890625 -55.875 C 33.066406 -55.789062 33.242188 -55.6875 33.421875 -55.5625 C 33.609375 -55.4375 33.796875 -55.378906 33.984375 -55.390625 L 34.359375 -55.78125 L 34.234375 -56.046875 L 34.09375 -56.1875 L 33.03125 -56.15625 L 33.03125 -56.015625 Z M 31.5 -53.8125 C 32.007812 -54.375 32.257812 -54.695312 32.25 -54.78125 L 32.125 -55.171875 C 32.03125 -55.171875 31.976562 -55.21875 31.96875 -55.3125 L 31.046875 -55 C 30.867188 -55 30.757812 -54.953125 30.71875 -54.859375 C 30.675781 -54.765625 30.675781 -54.65625 30.71875 -54.53125 C 30.769531 -54.40625 30.800781 -54.296875 30.8125 -54.203125 L 31.234375 -53.53125 C 31.234375 -53.53125 31.320312 -53.625 31.5 -53.8125 Z M 29.046875 -54.9375 L 29.046875 -54.671875 L 29.71875 -54.6875 L 29.71875 -54.953125 Z M 40.3125 -54.109375 C 40.738281 -54.578125 41.125 -54.90625 41.46875 -55.09375 C 41.113281 -55.082031 40.9375 -55.125 40.9375 -55.21875 C 40.675781 -54.9375 40.410156 -54.789062 40.140625 -54.78125 C 39.878906 -54.769531 39.609375 -54.894531 39.328125 -55.15625 C 39.242188 -55.0625 39.050781 -54.898438 38.75 -54.671875 C 38.445312 -54.441406 38.296875 -54.28125 38.296875 -54.1875 C 38.304688 -53.832031 38.40625 -53.613281 38.59375 -53.53125 C 39.644531 -53.65625 40.21875 -53.847656 40.3125 -54.109375 Z M 43.515625 -54.625 C 43.515625 -54.539062 43.535156 -54.476562 43.578125 -54.4375 C 43.617188 -54.394531 43.640625 -54.375 43.640625 -54.375 C 43.640625 -54.375 43.664062 -54.347656 43.71875 -54.296875 C 43.769531 -54.253906 43.796875 -54.234375 43.796875 -54.234375 L 44.171875 -54.65625 Z M 29.09375 -53.34375 C 29.09375 -53.519531 29.132812 -53.609375 29.21875 -53.609375 L 29.078125 -53.875 L 28.828125 -53.71875 L 28.6875 -53.71875 Z M 39.21875 -50.734375 C 38.84375 -51.265625 38.382812 -51.519531 37.84375 -51.5 L 37.59375 -51.484375 C 37.59375 -51.390625 37.503906 -51.34375 37.328125 -51.34375 C 37.054688 -51.332031 36.785156 -51.457031 36.515625 -51.71875 C 36.960938 -52 37.359375 -52.144531 37.703125 -52.15625 C 38.054688 -52.175781 38.285156 -52.003906 38.390625 -51.640625 C 38.378906 -51.816406 38.457031 -52.039062 38.625 -52.3125 C 38.789062 -52.59375 38.960938 -52.78125 39.140625 -52.875 L 38.34375 -52.84375 L 38.0625 -52.703125 C 37.71875 -52.691406 37.429688 -52.769531 37.203125 -52.9375 C 36.972656 -53.113281 36.859375 -53.289062 36.859375 -53.46875 C 36.867188 -52.9375 36.5625 -52.660156 35.9375 -52.640625 L 35.9375 -52.765625 L 35.28125 -52.734375 C 35.1875 -52.734375 35.054688 -52.640625 34.890625 -52.453125 L 34.75 -52.453125 L 34.625 -52.328125 C 34.175781 -52.304688 33.957031 -52.113281 33.96875 -51.75 L 34.765625 -51.65625 C 34.972656 -51.3125 35.34375 -51.054688 35.875 -50.890625 C 36.238281 -50.816406 36.785156 -50.566406 37.515625 -50.140625 L 39.234375 -50.203125 Z M 41 -53.484375 L 41.8125 -53.234375 L 41.796875 -53.375 L 41.265625 -53.609375 Z M 28.625 -51.859375 C 28.4375 -51.847656 28.34375 -51.75 28.34375 -51.5625 L 29.015625 -51.578125 Z M 43.21875 -51.421875 C 43.113281 -51.671875 42.835938 -51.789062 42.390625 -51.78125 L 42.140625 -51.375 Z M 47.375 -51.015625 C 47.738281 -51.023438 48.007812 -51.078125 48.1875 -51.171875 C 48.363281 -51.179688 48.488281 -51.234375 48.5625 -51.328125 L 48.828125 -51.46875 L 48.546875 -51.71875 C 48.367188 -51.71875 48.238281 -51.757812 48.15625 -51.84375 L 47.75 -51.828125 C 47.65625 -51.828125 47.519531 -51.84375 47.34375 -51.875 C 47.164062 -51.914062 46.898438 -51.929688 46.546875 -51.921875 L 46.296875 -51.25 L 46.84375 -50.984375 Z M 30 -50.140625 L 30.015625 -49.75 L 30.28125 -49.765625 L 30.265625 -50.15625 Z M 43.515625 -50.21875 L 42.84375 -50.203125 L 42.859375 -49.921875 L 43.53125 -49.9375 Z M 36.734375 -49.3125 L 36.75 -48.90625 L 37.015625 -48.921875 L 37 -49.328125 Z M 40.140625 -46.875 C 40.398438 -47.15625 40.578125 -47.300781 40.671875 -47.3125 L 39.734375 -47.28125 L 38.65625 -47.5 L 38.546875 -46.828125 C 38.546875 -46.828125 38.566406 -46.804688 38.609375 -46.765625 C 38.660156 -46.722656 38.6875 -46.703125 38.6875 -46.703125 L 38.953125 -46.578125 L 39.5 -46.453125 C 39.675781 -46.460938 39.890625 -46.601562 40.140625 -46.875 Z M 43.234375 -46.71875 L 43.203125 -47.390625 L 42 -47.359375 L 41.75 -46.9375 C 42.113281 -46.769531 42.296875 -46.6875 42.296875 -46.6875 L 42.84375 -46.5625 Z M 52.109375 -45.6875 L 52.5 -46.09375 C 52.40625 -46.09375 52.265625 -46.226562 52.078125 -46.5 L 50.75 -46.453125 L 50.609375 -46.296875 L 50.640625 -45.765625 Z M 54.96875 -44.1875 C 54.96875 -44.1875 55.015625 -44.160156 55.109375 -44.109375 C 55.203125 -44.066406 55.421875 -44.226562 55.765625 -44.59375 L 55.484375 -44.734375 L 55.359375 -45 C 55.003906 -44.976562 54.828125 -44.832031 54.828125 -44.5625 C 54.835938 -44.300781 54.882812 -44.175781 54.96875 -44.1875 Z M 46 -44.265625 C 45.90625 -44.359375 45.679688 -44.398438 45.328125 -44.390625 L 45.625 -43.71875 C 45.789062 -43.820312 45.875 -43.914062 45.875 -44 C 45.875 -44.09375 45.914062 -44.179688 46 -44.265625 Z M 61.5625 -43.59375 L 61.640625 -41.203125 C 61.648438 -41.023438 61.769531 -40.894531 62 -40.8125 C 62.226562 -40.738281 62.425781 -40.742188 62.59375 -40.828125 L 62.5 -43.625 Z M 51.109375 -39.78125 L 51.375 -39.78125 L 51.5 -40.328125 L 51.234375 -40.3125 Z M 15.84375 -37.765625 L 16.640625 -37.65625 L 16.640625 -37.78125 L 16.5 -37.921875 L 16.5 -38.046875 C 16.226562 -37.953125 15.867188 -37.898438 15.421875 -37.890625 L 14.75 -37.859375 Z M 17.328125 -37.015625 C 17.859375 -37.023438 18.21875 -37.125 18.40625 -37.3125 L 18.390625 -37.71875 C 18.296875 -37.800781 18.070312 -37.835938 17.71875 -37.828125 L 17.453125 -37.6875 L 17.3125 -37.546875 L 17.046875 -37.53125 L 17.0625 -37 Z M 10 -36.5 C 10.175781 -36.320312 10.363281 -36.054688 10.5625 -35.703125 C 10.75 -35.523438 10.863281 -35.375 10.90625 -35.25 C 10.957031 -35.125 11.03125 -35.015625 11.125 -34.921875 C 11.300781 -34.929688 11.429688 -34.984375 11.515625 -35.078125 L 12.15625 -35.484375 C 12.5 -35.765625 12.664062 -36.039062 12.65625 -36.3125 C 12.65625 -36.570312 12.5625 -36.75 12.375 -36.84375 C 12.289062 -36.84375 12.222656 -36.882812 12.171875 -36.96875 C 12.128906 -37.050781 12.109375 -37.09375 12.109375 -37.09375 Z M 19.234375 -36.140625 L 18.828125 -36.25 L 18.703125 -36.25 L 18.984375 -35.984375 Z M 50.09375 -33.96875 C 50.09375 -34.0625 50 -34.195312 49.8125 -34.375 L 49.40625 -34.625 L 48.75 -34.59375 L 49.046875 -33.8125 L 49.71875 -33.828125 L 49.828125 -33.96875 Z M 19.109375 -32.25 L 19.125 -31.84375 L 19.796875 -31.875 L 20.171875 -32.296875 Z M 51.84375 -30.15625 L 51.828125 -30.5625 L 51.546875 -31.078125 L 51.140625 -31.0625 L 51.171875 -30.125 Z M 17.46875 -29.375 C 16.9375 -29.007812 16.632812 -28.6875 16.5625 -28.40625 L 17.21875 -28.4375 L 18.140625 -29 C 18.140625 -29.09375 18.070312 -29.179688 17.9375 -29.265625 C 17.800781 -29.347656 17.644531 -29.382812 17.46875 -29.375 Z M 43.171875 -29.0625 C 43.359375 -29.0625 43.445312 -29.101562 43.4375 -29.1875 L 43.4375 -29.328125 L 42.875 -29.578125 C 42.53125 -29.390625 42.363281 -29.207031 42.375 -29.03125 Z M 52.828125 -28.578125 C 53.003906 -28.578125 53.15625 -28.644531 53.28125 -28.78125 C 53.414062 -28.925781 53.484375 -29.046875 53.484375 -29.140625 C 53.117188 -29.128906 52.898438 -28.941406 52.828125 -28.578125 Z M 5.890625 -23.625 L 5.875 -24.03125 L 5.609375 -24.015625 L 5.625 -23.609375 Z M 18.109375 -22.296875 C 18.640625 -22.585938 18.898438 -22.863281 18.890625 -23.125 C 18.878906 -23.488281 18.644531 -23.707031 18.1875 -23.78125 L 17.9375 -23.640625 L 17.796875 -23.234375 L 17.953125 -22.828125 Z M 42.28125 -23.796875 C 42.457031 -23.710938 42.679688 -23.675781 42.953125 -23.6875 C 43.035156 -23.78125 43.164062 -23.832031 43.34375 -23.84375 L 43.328125 -24.25 L 42.796875 -24.234375 C 42.453125 -24.023438 42.28125 -23.878906 42.28125 -23.796875 Z M 5.90625 -22.828125 L 5.65625 -22.671875 L 5.921875 -22.5625 L 6.1875 -22.6875 Z M 54.59375 -24.078125 C 54.425781 -23.992188 54.382812 -23.90625 54.46875 -23.8125 L 54.625 -23.546875 L 55.140625 -23.84375 L 55.140625 -23.984375 C 55.140625 -23.984375 55.113281 -24 55.0625 -24.03125 C 55.007812 -24.070312 54.984375 -24.09375 54.984375 -24.09375 L 54.859375 -24.234375 C 54.765625 -24.234375 54.71875 -24.1875 54.71875 -24.09375 Z M 53.296875 -22.703125 C 53.117188 -22.878906 52.984375 -22.96875 52.890625 -22.96875 C 52.898438 -22.425781 52.957031 -22.066406 53.0625 -21.890625 L 53.078125 -21.5 C 53.160156 -21.582031 53.382812 -21.628906 53.75 -21.640625 L 53.71875 -22.3125 Z M 9.484375 -20.53125 C 9.660156 -20.539062 9.742188 -20.679688 9.734375 -20.953125 L 9.46875 -21.0625 L 8.796875 -21.046875 C 8.796875 -20.773438 8.835938 -20.640625 8.921875 -20.640625 C 9.191406 -20.648438 9.378906 -20.613281 9.484375 -20.53125 Z M 18.03125 -20.5625 C 18.207031 -20.570312 18.207031 -20.660156 18.03125 -20.828125 C 17.84375 -20.992188 17.75 -21.078125 17.75 -21.078125 C 17.757812 -20.898438 17.671875 -20.765625 17.484375 -20.671875 C 17.484375 -20.585938 17.578125 -20.546875 17.765625 -20.546875 Z M 59.515625 -21.4375 C 59.328125 -21.613281 59.234375 -21.703125 59.234375 -21.703125 C 59.046875 -21.878906 58.90625 -21.960938 58.8125 -21.953125 L 58.296875 -21.671875 C 58.296875 -21.671875 58.269531 -21.644531 58.21875 -21.59375 C 58.175781 -21.550781 58.15625 -21.53125 58.15625 -21.53125 L 58.03125 -21.53125 L 57.625 -21.65625 C 57.613281 -21.832031 57.65625 -21.960938 57.75 -22.046875 L 57.875 -22.1875 C 57.875 -22.1875 57.894531 -22.207031 57.9375 -22.25 C 57.976562 -22.300781 58 -22.328125 58 -22.328125 L 57.59375 -22.3125 C 57.414062 -22.394531 57.257812 -22.410156 57.125 -22.359375 C 56.988281 -22.304688 56.832031 -22.28125 56.65625 -22.28125 L 56.953125 -21.484375 C 56.960938 -21.390625 56.988281 -21.28125 57.03125 -21.15625 C 57.082031 -21.03125 57.203125 -20.878906 57.390625 -20.703125 C 57.660156 -20.710938 57.796875 -20.757812 57.796875 -20.84375 L 58.328125 -20.859375 C 58.773438 -20.878906 59.085938 -20.847656 59.265625 -20.765625 Z M 13.90625 -19.75 C 14.175781 -19.757812 14.460938 -19.878906 14.765625 -20.109375 C 15.066406 -20.347656 15.300781 -20.597656 15.46875 -20.859375 L 15.21875 -20.734375 C 15.21875 -20.640625 15.039062 -20.585938 14.6875 -20.578125 C 14.507812 -20.566406 14.421875 -20.609375 14.421875 -20.703125 L 13.859375 -20.8125 C 13.410156 -20.789062 13.109375 -20.515625 12.953125 -19.984375 L 13.515625 -19.859375 C 13.515625 -19.773438 13.644531 -19.738281 13.90625 -19.75 Z M 55.484375 -21.4375 L 55.328125 -21.96875 C 54.898438 -21.769531 54.6875 -21.582031 54.6875 -21.40625 L 55.5 -21.171875 Z M 53.109375 -20.5625 C 52.941406 -20.101562 52.8125 -19.875 52.71875 -19.875 C 52.539062 -20.039062 52.316406 -20.070312 52.046875 -19.96875 L 51.25 -19.953125 C 51.34375 -19.867188 51.410156 -19.757812 51.453125 -19.625 C 51.503906 -19.488281 51.578125 -19.425781 51.671875 -19.4375 C 51.859375 -19.257812 52.039062 -19.175781 52.21875 -19.1875 C 52.394531 -19.1875 52.53125 -19.238281 52.625 -19.34375 L 53.140625 -19.484375 L 53.40625 -19.484375 L 53.671875 -19.765625 L 53.65625 -20.171875 Z M 19.5625 -19 C 19.5625 -19 19.535156 -19.019531 19.484375 -19.0625 C 19.441406 -19.113281 19.421875 -19.140625 19.421875 -19.140625 L 19.28125 -19.265625 L 19.03125 -18.984375 Z M 47.109375 -19.6875 L 46.859375 -19.53125 L 47.125 -19.421875 L 47.390625 -19.546875 Z M 13.21875 -16.375 C 13.488281 -16.5625 13.617188 -16.703125 13.609375 -16.796875 C 13.609375 -16.972656 13.421875 -17.144531 13.046875 -17.3125 C 12.703125 -17.300781 12.441406 -17.332031 12.265625 -17.40625 C 11.910156 -17.21875 11.738281 -16.992188 11.75 -16.734375 C 11.757812 -16.546875 11.804688 -16.453125 11.890625 -16.453125 C 11.890625 -16.453125 11.910156 -16.429688 11.953125 -16.390625 C 12.003906 -16.359375 12.03125 -16.34375 12.03125 -16.34375 Z M 54.828125 -17.390625 C 55.273438 -17.148438 55.632812 -17.035156 55.90625 -17.046875 C 56.175781 -17.054688 56.351562 -17.101562 56.4375 -17.1875 C 56.425781 -17.363281 56.46875 -17.453125 56.5625 -17.453125 C 56.375 -17.628906 56.144531 -17.710938 55.875 -17.703125 L 55.34375 -17.953125 Z M 6.171875 -15.0625 L 6.15625 -15.734375 L 5.890625 -15.71875 L 5.90625 -15.046875 Z M 21.28125 -15.859375 L 21.28125 -15.578125 L 21.9375 -15.59375 L 21.9375 -15.875 Z M 49.75 -16.6875 C 49.769531 -16.238281 50.09375 -16.023438 50.71875 -16.046875 C 50.445312 -16.210938 50.3125 -16.34375 50.3125 -16.4375 Z M 52.640625 -14.515625 C 52.640625 -14.515625 52.539062 -14.78125 52.34375 -15.3125 C 52.25 -15.382812 52.195312 -15.554688 52.1875 -15.828125 C 52.195312 -15.734375 52.140625 -15.535156 52.015625 -15.234375 C 51.898438 -14.929688 51.882812 -14.6875 51.96875 -14.5 Z M 42.453125 -14.828125 L 42.59375 -14.828125 L 43.109375 -15 C 43.109375 -15.175781 42.929688 -15.253906 42.578125 -15.234375 L 42.4375 -15.234375 L 42.3125 -15.09375 L 42.4375 -14.96875 Z M 4.359375 -13.40625 C 3.640625 -13.550781 3.144531 -13.617188 2.875 -13.609375 C 2.601562 -13.597656 2.472656 -13.460938 2.484375 -13.203125 C 2.765625 -12.859375 3.265625 -12.703125 3.984375 -12.734375 L 4.375 -12.875 Z M 57.25 -12.9375 C 57.507812 -13.125 57.640625 -13.304688 57.640625 -13.484375 L 57.359375 -14.03125 C 57.179688 -13.832031 57.046875 -13.734375 56.953125 -13.734375 L 56.5625 -13.453125 C 56.039062 -13.171875 55.78125 -12.941406 55.78125 -12.765625 C 56.132812 -12.773438 56.316406 -12.734375 56.328125 -12.640625 C 56.242188 -12.546875 56.296875 -12.375 56.484375 -12.125 L 56.75 -12.125 C 56.738281 -12.207031 56.820312 -12.253906 57 -12.265625 C 56.820312 -12.523438 56.90625 -12.75 57.25 -12.9375 Z M 6.59375 -10.671875 L 6.203125 -10.65625 L 6.25 -9.1875 C 6.238281 -9.445312 6.273438 -9.671875 6.359375 -9.859375 C 6.347656 -10.046875 6.390625 -10.179688 6.484375 -10.265625 Z M 45.640625 -11.609375 C 45.472656 -11.328125 45.613281 -11.195312 46.0625 -11.21875 L 46.3125 -11.5 Z M 55.890625 -9.8125 L 56.28125 -10.234375 C 56.101562 -10.222656 56.007812 -10.304688 56 -10.484375 L 55.328125 -10.46875 C 55.148438 -10.457031 55.066406 -10.363281 55.078125 -10.1875 C 55.160156 -10.019531 55.289062 -9.9375 55.46875 -9.9375 Z M 58.546875 -10.171875 L 58.578125 -9.5 L 58.84375 -9.515625 L 58.8125 -10.1875 Z M 43.328125 -8.71875 C 42.972656 -8.875 42.707031 -8.953125 42.53125 -8.953125 L 41.984375 -9.078125 C 41.722656 -8.972656 41.613281 -8.832031 41.65625 -8.65625 C 41.707031 -8.476562 41.828125 -8.394531 42.015625 -8.40625 Z M 43.40625 -6.578125 C 43.9375 -6.953125 44.332031 -7.144531 44.59375 -7.15625 C 45.03125 -7.257812 45.421875 -7.539062 45.765625 -8 L 45.75 -8.265625 L 45.625 -8.265625 C 45.445312 -8.253906 45.316406 -8.207031 45.234375 -8.125 L 44.703125 -7.96875 L 43.875 -8.203125 C 43.625 -8.109375 43.4375 -7.851562 43.3125 -7.4375 C 43.1875 -7.03125 43.21875 -6.742188 43.40625 -6.578125 Z M 55.203125 -6.578125 C 54.921875 -6.742188 54.78125 -6.828125 54.78125 -6.828125 L 54.375 -6.828125 L 54.390625 -6.421875 Z M 57.890625 -6.265625 C 57.796875 -6.265625 57.566406 -6.347656 57.203125 -6.515625 C 57.117188 -6.597656 56.941406 -6.640625 56.671875 -6.640625 C 56.492188 -6.628906 56.40625 -6.578125 56.40625 -6.484375 C 56.40625 -6.484375 56.378906 -6.460938 56.328125 -6.421875 C 56.285156 -6.378906 56.265625 -6.359375 56.265625 -6.359375 L 56.28125 -5.953125 L 56.4375 -5.6875 L 56.5625 -5.546875 L 57.890625 -6 Z M 46.953125 -4.6875 C 47.035156 -4.6875 47.207031 -4.914062 47.46875 -5.375 C 46.757812 -5.351562 46.125 -5.597656 45.5625 -6.109375 C 45.3125 -5.828125 45.191406 -5.597656 45.203125 -5.421875 C 45.203125 -5.242188 45.335938 -5.070312 45.609375 -4.90625 C 45.878906 -4.738281 46.148438 -4.660156 46.421875 -4.671875 Z M 46.953125 -4.6875 "/></g></g></g><g fill="#fefefe" fill-opacity="1"><g transform="translate(1038.927165, 960.264082)"><g><path d="M 64.96875 -18.15625 C 65.519531 -17.632812 65.804688 -17.0625 65.828125 -16.4375 C 65.847656 -15.894531 65.601562 -15.269531 65.09375 -14.5625 L 64.984375 -14.28125 L 64.453125 -14.265625 C 64.003906 -14.253906 63.644531 -14.109375 63.375 -13.828125 C 63.570312 -13.378906 63.757812 -13.117188 63.9375 -13.046875 L 55.859375 -2.859375 C 55.347656 -2.210938 54.6875 -1.875 53.875 -1.84375 C 52.894531 -1.8125 52.171875 -2.140625 51.703125 -2.828125 L 45.859375 -9.46875 C 42.203125 -6.664062 38.835938 -4.679688 35.765625 -3.515625 C 33.566406 -2.617188 31.039062 -2.125 28.1875 -2.03125 C 23.90625 -1.882812 19.722656 -2.722656 15.640625 -4.546875 C 11.566406 -6.367188 8.210938 -9.15625 5.578125 -12.90625 C 0.515625 -20.226562 -2.226562 -29.992188 -2.65625 -42.203125 C -2.738281 -44.691406 -2.753906 -46.566406 -2.703125 -47.828125 C -2.640625 -58.898438 0.128906 -69.210938 5.609375 -78.765625 C 8.222656 -83.140625 11.757812 -86.671875 16.21875 -89.359375 C 20.675781 -92.054688 25.664062 -93.5 31.1875 -93.6875 C 32.4375 -93.726562 33.421875 -93.71875 34.140625 -93.65625 C 39.867188 -93.15625 45.0625 -91.265625 49.71875 -87.984375 C 54.382812 -84.703125 57.625 -80.144531 59.4375 -74.3125 C 61.4375 -67.96875 62.539062 -61.765625 62.75 -55.703125 C 62.96875 -49.367188 62.6875 -43.890625 61.90625 -39.265625 C 61.132812 -34.640625 59.804688 -29.890625 57.921875 -25.015625 Z M 34 -90.046875 C 33.28125 -90.117188 32.832031 -90.128906 32.65625 -90.078125 C 32.476562 -90.023438 32.394531 -89.863281 32.40625 -89.59375 C 32.6875 -89.34375 33.003906 -89.222656 33.359375 -89.234375 C 33.804688 -89.242188 34.160156 -89.296875 34.421875 -89.390625 L 35.5 -89.5625 L 35.21875 -89.828125 C 35.125 -89.828125 35.070312 -89.914062 35.0625 -90.09375 Z M 33.109375 -88.953125 C 32.390625 -88.753906 31.90625 -88.46875 31.65625 -88.09375 C 31.925781 -87.925781 32.15625 -87.664062 32.34375 -87.3125 C 32.445312 -86.96875 32.851562 -86.804688 33.5625 -86.828125 C 34.101562 -86.847656 34.195312 -86.941406 33.84375 -87.109375 C 33.644531 -87.273438 33.765625 -87.539062 34.203125 -87.90625 L 35.546875 -87.953125 L 35.9375 -88.375 L 35.9375 -88.5 C 35.9375 -88.5 35.957031 -88.523438 36 -88.578125 C 36.039062 -88.628906 36.0625 -88.65625 36.0625 -88.65625 C 36.226562 -88.832031 36.484375 -88.925781 36.828125 -88.9375 C 37.015625 -88.945312 37.28125 -89.132812 37.625 -89.5 C 37.53125 -89.59375 37.304688 -89.632812 36.953125 -89.625 C 36.773438 -89.613281 36.507812 -89.691406 36.15625 -89.859375 C 36.0625 -89.765625 36.066406 -89.628906 36.171875 -89.453125 C 36.179688 -89.191406 36.140625 -89.0625 36.046875 -89.0625 L 35.390625 -88.484375 C 35.140625 -88.210938 34.878906 -88.070312 34.609375 -88.0625 C 34.253906 -88.050781 34.03125 -88 33.9375 -87.90625 C 33.664062 -87.894531 33.4375 -87.972656 33.25 -88.140625 C 33.070312 -88.316406 33.070312 -88.40625 33.25 -88.40625 Z M 18.8125 -87.796875 C 18.8125 -87.796875 18.785156 -87.8125 18.734375 -87.84375 C 18.691406 -87.882812 18.671875 -87.90625 18.671875 -87.90625 C 18.578125 -88 18.523438 -88.132812 18.515625 -88.3125 L 16.78125 -88.25 C 16.875 -88.175781 16.984375 -88.140625 17.109375 -88.140625 C 17.242188 -88.148438 17.363281 -88.109375 17.46875 -88.015625 L 17.734375 -87.875 L 17.734375 -87.609375 L 18.265625 -87.640625 Z M 21.75 -87.75 L 22.265625 -88.4375 L 20.9375 -88.390625 L 20.953125 -87.71875 Z M 30.84375 -88.0625 L 30.84375 -88.328125 L 29.90625 -88.296875 L 29.90625 -88.03125 Z M 23.40625 -86.75 C 23.03125 -86.914062 22.835938 -87.175781 22.828125 -87.53125 L 22.03125 -87.5 L 22.046875 -87.09375 C 22.234375 -86.65625 22.503906 -86.445312 22.859375 -86.46875 C 23.046875 -86.46875 23.226562 -86.5625 23.40625 -86.75 Z M 31.96875 -86.78125 L 31.96875 -87.046875 L 31.296875 -87.015625 L 31.296875 -86.75 Z M 40.453125 -61.625 C 40.441406 -61.800781 40.347656 -61.890625 40.171875 -61.890625 L 39.890625 -62.015625 C 39.734375 -64.328125 39.515625 -66.273438 39.234375 -67.859375 C 38.953125 -69.453125 38.472656 -71 37.796875 -72.5 C 37.035156 -74.175781 35.972656 -75.300781 34.609375 -75.875 L 34.484375 -75.875 C 33.753906 -76.207031 32.945312 -76.359375 32.0625 -76.328125 C 30.1875 -76.265625 28.585938 -75.296875 27.265625 -73.421875 C 25.941406 -71.546875 24.96875 -69.390625 24.34375 -66.953125 C 23.550781 -63.804688 22.570312 -58.507812 21.40625 -51.0625 C 20.769531 -46.21875 20.5625 -40.546875 20.78125 -34.046875 C 21.019531 -27.003906 22.238281 -22.757812 24.4375 -21.3125 C 25.082031 -20.800781 25.894531 -20.5625 26.875 -20.59375 C 27.582031 -20.625 28.242188 -20.78125 28.859375 -21.0625 C 29.578125 -21.175781 30.320312 -21.648438 31.09375 -22.484375 L 24.359375 -27.46875 C 23.710938 -27.976562 23.375 -28.722656 23.34375 -29.703125 C 23.3125 -30.421875 23.472656 -30.96875 23.828125 -31.34375 L 33.046875 -43.4375 C 33.554688 -44.070312 34.257812 -44.40625 35.15625 -44.4375 C 35.863281 -44.46875 36.445312 -44.304688 36.90625 -43.953125 L 38.828125 -42.421875 L 39.140625 -45.234375 C 39.441406 -46.765625 39.675781 -48.960938 39.84375 -51.828125 C 40.082031 -55.222656 40.148438 -58.484375 40.046875 -61.609375 Z M 19.296875 -69.578125 C 19.472656 -69.585938 19.734375 -69.691406 20.078125 -69.890625 C 19.992188 -69.972656 19.945312 -70.148438 19.9375 -70.421875 L 19 -70.390625 Z M 42.8125 -43.625 C 42.632812 -43.519531 42.613281 -43.378906 42.75 -43.203125 C 42.894531 -43.035156 43.054688 -42.914062 43.234375 -42.84375 L 43.90625 -42.859375 L 43.75 -43.390625 L 43.609375 -43.65625 Z M 45.390625 -42.78125 C 45.117188 -42.6875 44.851562 -42.476562 44.59375 -42.15625 C 44.34375 -41.832031 44.175781 -41.578125 44.09375 -41.390625 C 44.09375 -41.210938 44.179688 -41.125 44.359375 -41.125 L 44.890625 -41.140625 C 44.984375 -41.328125 45.019531 -41.601562 45 -41.96875 C 44.820312 -42.039062 45.082031 -42.269531 45.78125 -42.65625 L 45.515625 -42.65625 C 45.515625 -42.65625 45.492188 -42.675781 45.453125 -42.71875 C 45.410156 -42.757812 45.390625 -42.78125 45.390625 -42.78125 Z M 9.859375 -40.625 L 9.578125 -40.875 C 9.316406 -40.601562 9.375 -40.378906 9.75 -40.203125 Z M 45.46875 -40.390625 C 45.914062 -40.398438 46.144531 -40.316406 46.15625 -40.140625 L 46.40625 -40.421875 L 46.40625 -40.5625 C 46.125 -40.8125 45.804688 -40.929688 45.453125 -40.921875 Z M 39.875 -39.25 C 40.226562 -39.351562 40.398438 -39.535156 40.390625 -39.796875 C 40.203125 -39.972656 39.976562 -40.054688 39.71875 -40.046875 Z M 44.171875 -39 C 44.085938 -38.988281 44.050781 -38.894531 44.0625 -38.71875 C 44.0625 -38.632812 44.242188 -38.46875 44.609375 -38.21875 C 44.773438 -38.394531 44.859375 -38.484375 44.859375 -38.484375 C 44.859375 -38.578125 44.941406 -38.71875 45.109375 -38.90625 C 44.742188 -39.34375 44.472656 -39.460938 44.296875 -39.265625 Z M 44.640625 -37.140625 C 44.359375 -37.398438 44.039062 -37.523438 43.6875 -37.515625 L 43.984375 -36.578125 C 44.429688 -36.773438 44.648438 -36.960938 44.640625 -37.140625 Z M 11.640625 -35.734375 C 11.546875 -35.734375 11.476562 -35.644531 11.4375 -35.46875 C 11.40625 -35.289062 11.476562 -35.203125 11.65625 -35.203125 Z M 45.25 -35.015625 C 45.507812 -35.210938 45.632812 -35.488281 45.625 -35.84375 C 45.25 -36 44.796875 -36.070312 44.265625 -36.0625 C 43.992188 -36.050781 43.75 -36.015625 43.53125 -35.953125 C 43.320312 -35.898438 43.222656 -35.742188 43.234375 -35.484375 C 43.234375 -35.304688 43.273438 -35.222656 43.359375 -35.234375 L 43.515625 -34.953125 Z M -1.015625 -33.703125 L -1.015625 -33.5625 L -0.46875 -33.4375 L -0.484375 -33.71875 Z M 1.6875 -32.984375 L 1.15625 -32.96875 C 0.789062 -32.957031 0.523438 -32.769531 0.359375 -32.40625 C 0.191406 -32.050781 0.113281 -31.785156 0.125 -31.609375 C 0.125 -31.429688 0.222656 -31.160156 0.421875 -30.796875 L 1.625 -30.84375 L 2 -31.40625 L 1.953125 -32.875 Z M 39.203125 -31.59375 C 39.554688 -31.507812 40.003906 -31.523438 40.546875 -31.640625 L 40.265625 -32.171875 L 39.71875 -31.875 Z M 35.78125 -30.421875 C 36.039062 -30.421875 36.171875 -30.460938 36.171875 -30.546875 C 36.171875 -30.546875 36.144531 -30.566406 36.09375 -30.609375 C 36.050781 -30.660156 36.03125 -30.6875 36.03125 -30.6875 C 35.851562 -30.6875 35.765625 -30.773438 35.765625 -30.953125 C 35.765625 -30.773438 35.765625 -30.6875 35.765625 -30.6875 Z M 43.40625 -26.109375 C 43.21875 -26.285156 42.757812 -26.539062 42.03125 -26.875 L 42.046875 -26.46875 L 42.46875 -26.078125 Z M 38.65625 -24.078125 C 38.738281 -23.992188 38.785156 -23.863281 38.796875 -23.6875 C 38.890625 -23.6875 38.976562 -23.753906 39.0625 -23.890625 C 39.144531 -24.035156 39.1875 -24.148438 39.1875 -24.234375 L 38.921875 -24.21875 C 38.921875 -24.21875 38.894531 -24.238281 38.84375 -24.28125 C 38.800781 -24.332031 38.78125 -24.359375 38.78125 -24.359375 Z M 46.9375 -20.875 L 46.6875 -20.34375 L 46.953125 -20.203125 L 47.203125 -20.890625 Z M 43.796875 -18.890625 C 44.148438 -18.734375 44.460938 -18.65625 44.734375 -18.65625 C 44.910156 -18.75 45.21875 -18.800781 45.65625 -18.8125 L 45.375 -19.484375 C 45.195312 -19.472656 45.066406 -19.425781 44.984375 -19.34375 L 44.4375 -19.1875 C 44.351562 -19.1875 44.140625 -19.085938 43.796875 -18.890625 Z M 45.96875 -18.171875 L 45.671875 -18.28125 C 45.585938 -18.375 45.457031 -18.421875 45.28125 -18.421875 C 44.738281 -18.398438 44.296875 -18.296875 43.953125 -18.109375 C 44.503906 -17.753906 44.78125 -17.488281 44.78125 -17.3125 C 44.789062 -17.132812 44.75 -17.003906 44.65625 -16.921875 L 44.671875 -16.78125 L 45.734375 -16.8125 C 46.085938 -17.101562 46.253906 -17.472656 46.234375 -17.921875 L 46.234375 -18.1875 Z M 39.203125 -11.796875 C 39.378906 -11.796875 39.566406 -11.710938 39.765625 -11.546875 L 40.28125 -11.953125 C 40.269531 -12.222656 40.082031 -12.488281 39.71875 -12.75 L 39.1875 -12.46875 C 39.019531 -12.28125 38.9375 -12.1875 38.9375 -12.1875 C 38.945312 -11.914062 39.035156 -11.785156 39.203125 -11.796875 Z M 19.21875 -9.5 C 19.394531 -9.320312 19.617188 -9.238281 19.890625 -9.25 C 19.890625 -9.425781 19.84375 -9.515625 19.75 -9.515625 L 19.734375 -9.78125 Z M 40.515625 -8.875 C 40.691406 -9.15625 40.679688 -9.378906 40.484375 -9.546875 L 39.96875 -9.265625 Z M 39.0625 -8.5625 C 39.21875 -9.019531 39.117188 -9.289062 38.765625 -9.375 L 38.234375 -9.34375 C 37.878906 -9.332031 37.710938 -9.144531 37.734375 -8.78125 C 37.734375 -8.519531 37.910156 -8.394531 38.265625 -8.40625 Z M 30.671875 -7.484375 C 30.484375 -7.648438 30.390625 -7.734375 30.390625 -7.734375 L 29.84375 -7.859375 L 29.328125 -7.578125 C 29.328125 -7.484375 29.238281 -7.429688 29.0625 -7.421875 L 28.953125 -7.15625 L 30.03125 -6.65625 L 30.4375 -6.671875 L 30.6875 -6.953125 Z M 30.671875 -7.484375 "/></g></g></g></svg>