<svg xmlns="http://www.w3.org/2000/svg" xmlns:xlink="http://www.w3.org/1999/xlink" width="2000" zoomAndPan="magnify" viewBox="0 0 1500 1499.999933" height="2000" preserveAspectRatio="xMidYMid meet" version="1.0"><defs><clipPath id="97fb0b0883"><path d="M 122 353 L 1339 353 L 1339 1097 L 122 1097 Z M 122 353 " clip-rule="nonzero"/></clipPath><clipPath id="e9155c6392"><path d="M 1414.632812 1002.101562 L 793.171875 1464.726562 L 47.054688 462.449219 L 668.515625 -0.179688 Z M 1414.632812 1002.101562 " clip-rule="nonzero"/></clipPath><clipPath id="316ade9a75"><path d="M 1414.632812 1002.101562 L 793.171875 1464.726562 L 47.054688 462.449219 L 668.515625 -0.179688 Z M 1414.632812 1002.101562 " clip-rule="nonzero"/></clipPath></defs><g clip-path="url(#97fb0b0883)"><g clip-path="url(#e9155c6392)"><g clip-path="url(#316ade9a75)"><path fill="#739f8f" d="M 151.953125 392.25 C 156.414062 388.929688 161.328125 386.074219 166.65625 383.785156 C 203.277344 368.078125 245.707031 385.035156 261.425781 421.664062 C 324.144531 567.886719 454.394531 636.75 579.21875 657.851562 C 577.839844 552.9375 611.160156 452.933594 675.019531 396.679688 C 736.242188 342.765625 814.867188 338.667969 885.355469 385.792969 C 1024.605469 478.875 1035.152344 569.226562 1019.488281 628.625 C 996.09375 717.351562 898.8125 781.855469 761.019531 802.566406 C 836.007812 936.394531 1009.484375 982.550781 1251.589844 932.53125 C 1290.617188 924.46875 1328.792969 949.570312 1336.855469 988.597656 C 1344.945312 1027.628906 1319.832031 1065.828125 1280.808594 1073.875 C 1112.804688 1108.582031 969.070312 1103.605469 853.582031 1059.085938 C 751.382812 1019.6875 672.578125 949.210938 625.691406 855.289062 C 617.835938 839.546875 610.992188 823.25 605.160156 806.601562 C 425.679688 789.890625 223.242188 698.792969 128.78125 478.554688 C 115.355469 447.261719 125.78125 411.730469 151.953125 392.25 Z M 858.632812 616.726562 C 871.117188 607.429688 878.171875 598.519531 879.945312 591.828125 C 882.742188 581.230469 870.707031 549.597656 805.148438 505.773438 C 784.894531 492.230469 778.203125 498.113281 770.433594 504.964844 C 742.894531 529.21875 721.378906 591.117188 723.328125 661.972656 C 789.597656 654.332031 834.359375 634.796875 858.632812 616.726562 Z M 858.632812 616.726562 " fill-opacity="1" fill-rule="nonzero"/></g></g></g></svg>