<?xml version="1.0" encoding="UTF-8" standalone="no"?><!DOCTYPE svg PUBLIC "-//W3C//DTD SVG 1.1//EN" "http://www.w3.org/Graphics/SVG/1.1/DTD/svg11.dtd"><svg width="100%" height="100%" viewBox="0 0 167 167" version="1.1" xmlns="http://www.w3.org/2000/svg" xmlns:xlink="http://www.w3.org/1999/xlink" xml:space="preserve" xmlns:serif="http://www.serif.com/" style="fill-rule:evenodd;clip-rule:evenodd;stroke-linejoin:round;stroke-miterlimit:2;"><g><g><clipPath id="_clip1"><path d="M83.333,1.541c-44.839,0 -81.185,36.346 -81.185,81.185c0,44.839 36.346,81.185 81.185,81.185c44.839,0 81.185,-36.346 81.185,-81.185c0,-44.839 -36.346,-81.185 -81.185,-81.185Z"/></clipPath><g clip-path="url(#_clip1)"><g><g><g><g><clipPath id="_clip2"><path d="M83.333,1.541c-44.839,0 -81.185,36.346 -81.185,81.185c0,44.839 36.346,81.185 81.185,81.185c44.839,0 81.185,-36.346 81.185,-81.185c0,-44.839 -36.346,-81.185 -81.185,-81.185Z"/></clipPath><g clip-path="url(#_clip2)"><rect x="2.148" y="1.541" width="162.37" height="162.37" style="fill:#fc3a3c;fill-rule:nonzero;"/></g></g></g></g></g></g></g></g><g><g><g><path d="M123.329,130.704l-33.533,1.638l-0.328,-31.021l-15.401,0l-0.983,29.383l-30.038,0l2.512,-94.374l32.004,1.42l-2.075,48.279l14.964,0l0.109,-51.884l30.584,0.765l2.185,95.794Z" style="fill:#fff;fill-rule:nonzero;"/></g></g></g></svg>