<svg xmlns="http://www.w3.org/2000/svg" xmlns:xlink="http://www.w3.org/1999/xlink" width="40" zoomAndPan="magnify" viewBox="0 0 30 30.000001" height="40" preserveAspectRatio="xMidYMid meet" version="1.0"><defs><g/><clipPath id="fb9a186b3d"><path d="M 0.484375 0 L 29.515625 0 L 29.515625 29.03125 L 0.484375 29.03125 Z M 0.484375 0 " clip-rule="nonzero"/></clipPath><clipPath id="2953caa6cf"><path d="M 3.386719 2.902344 L 26.613281 2.902344 L 26.613281 26.128906 L 3.386719 26.128906 Z M 3.386719 2.902344 " clip-rule="nonzero"/></clipPath><clipPath id="40b2291ac7"><path d="M 15 2.902344 C 8.585938 2.902344 3.386719 8.101562 3.386719 14.515625 C 3.386719 20.929688 8.585938 26.128906 15 26.128906 C 21.414062 26.128906 26.613281 20.929688 26.613281 14.515625 C 26.613281 8.101562 21.414062 2.902344 15 2.902344 Z M 15 2.902344 " clip-rule="nonzero"/></clipPath><clipPath id="1ecbc785ba"><path d="M 0.386719 0.902344 L 23.613281 0.902344 L 23.613281 24.128906 L 0.386719 24.128906 Z M 0.386719 0.902344 " clip-rule="nonzero"/></clipPath><clipPath id="9f4291ad1a"><path d="M 12 0.902344 C 5.585938 0.902344 0.386719 6.101562 0.386719 12.515625 C 0.386719 18.929688 5.585938 24.128906 12 24.128906 C 18.414062 24.128906 23.613281 18.929688 23.613281 12.515625 C 23.613281 6.101562 18.414062 0.902344 12 0.902344 Z M 12 0.902344 " clip-rule="nonzero"/></clipPath><clipPath id="0bed689239"><rect x="0" width="24" y="0" height="25"/></clipPath></defs><g clip-path="url(#fb9a186b3d)"><path fill="#ffffff" d="M 0.484375 0 L 29.515625 0 L 29.515625 29.03125 L 0.484375 29.03125 Z M 0.484375 0 " fill-opacity="1" fill-rule="nonzero"/><path fill="#ffffff" d="M 0.484375 0 L 29.515625 0 L 29.515625 29.03125 L 0.484375 29.03125 Z M 0.484375 0 " fill-opacity="1" fill-rule="nonzero"/></g><g clip-path="url(#2953caa6cf)"><g clip-path="url(#40b2291ac7)"><g transform="matrix(1, 0, 0, 1, 3, 2)"><g clip-path="url(#0bed689239)"><g clip-path="url(#1ecbc785ba)"><g clip-path="url(#9f4291ad1a)"><path fill="#fc3a3c" d="M 0.386719 0.902344 L 23.613281 0.902344 L 23.613281 24.128906 L 0.386719 24.128906 Z M 0.386719 0.902344 " fill-opacity="1" fill-rule="nonzero"/></g></g></g></g></g></g><g fill="#ffffff" fill-opacity="1"><g transform="translate(8.830645, 17.628774)"><g><path d="M 11.890625 0 L 7.09375 0.234375 L 7.046875 -4.203125 L 4.84375 -4.203125 L 4.703125 0 L 0.40625 0 L 0.765625 -13.5 L 5.34375 -13.296875 L 5.046875 -6.390625 L 7.1875 -6.390625 L 7.203125 -13.8125 L 11.578125 -13.703125 Z M 11.890625 0 "/></g></g></g></svg>